<?xml version="1.0" encoding="UTF-8"?>
<svg id="Logos" xmlns="http://www.w3.org/2000/svg" viewBox="0 0 1006 185">
  <defs>
    <style>
      .cls-1 {
        fill: #fff;
        stroke-width: 0px;
      }
    </style>
  </defs>
  <path class="cls-1" d="M212.98,38.49c-30.66,0-55.52,24.86-55.52,55.52s24.86,55.52,55.52,55.52,55.52-24.86,55.52-55.52-24.86-55.52-55.52-55.52ZM212.98,123.75c-16.43,0-29.74-13.32-29.74-29.74s13.32-29.74,29.74-29.74,29.74,13.32,29.74,29.74-13.32,29.74-29.74,29.74Z"/>
  <path class="cls-1" d="M477.9,1.06v46.12c-8.61-5.5-18.84-8.69-29.81-8.69-30.66,0-55.52,24.86-55.52,55.52s24.86,55.52,55.52,55.52,55.52-24.86,55.52-55.52V1.06h-25.71ZM448.09,123.75c-16.43,0-29.74-13.32-29.74-29.74s13.32-29.74,29.74-29.74,29.74,13.32,29.74,29.74-13.32,29.74-29.74,29.74Z"/>
  <rect class="cls-1" x="5.76" y="162.63" width="95.91" height="22.03" rx="11.02" ry="11.02"/>
  <path class="cls-1" d="M978.32,64.95l-.02,48.72c0,3.99.9,6.83,2.69,8.47,1.82,1.67,4.53,2.52,8.07,2.52,4.75,0,9.37-1.11,13.76-3.3l2.76-1.37v23.5s-.98.55-.98.55c-3.11,1.75-6.47,3.12-10,4.07-3.53.94-7.62,1.42-12.19,1.42s-8.65-.55-12.46-1.63c-3.91-1.12-7.37-2.97-10.26-5.5-2.91-2.52-5.17-5.9-6.72-10.04-1.51-4.05-2.28-9.1-2.28-15.03l.03-52.39h-13.06s.01-23.9.01-23.9h13.06V12.78s27.61.01,27.61.01v28.26s27.66,0,27.66,0v23.9s-27.68-.01-27.68-.01Z"/>
  <path class="cls-1" d="M924.56,80.36l-.03,67.39h-27.61s.03-60.25.03-60.25c0-7.53-1.75-13.35-5.22-17.31-3.45-3.95-8.26-5.87-14.7-5.87s-11.3,2-15.21,6.11c-3.9,4.09-5.87,9.96-5.87,17.44l-.02,59.85h-27.61s.07-146.1.07-146.1h27.6s-.02,51.65-.02,51.65l2.22-2.5c2.11-2.26,4.59-4.31,7.37-6.1,2.77-1.78,5.87-3.21,9.22-4.24,3.34-1.04,7.15-1.56,11.35-1.56,12.17,0,21.74,3.83,28.43,11.37,6.64,7.48,10,17.61,10,30.12Z"/>
  <polygon class="cls-1" points="687.23 2.72 687.21 28.96 657.86 28.95 657.87 2.71 687.23 2.72"/>
  <rect class="cls-1" x="658.81" y="40.92" width="27.6" height="106.73"/>
  <polygon class="cls-1" points="634.05 1.53 633.99 147.63 606.39 147.61 606.45 1.52 634.05 1.53"/>
  <path class="cls-1" d="M560.47,37.91v3.73s27.28.02,27.28.02v23.31s-26.91-.01-26.91-.01l-.04,82.63h-27.6s.04-82.64.04-82.64h-13.06s.01-23.52.01-23.52h13.06s0-5.49,0-5.49c.01-11.91,2.98-20.92,8.83-26.77,5.85-5.87,14.21-8.84,24.87-8.84,4.28.01,8,.28,11.04.81,3.1.55,5.99,1.23,8.6,2.01l1.37.41v23.96s-2.53-.85-2.53-.85c-2.16-.72-4.36-1.33-6.52-1.8-2.02-.42-4.27-.64-6.72-.64-4,0-6.87,1.06-8.78,3.24-1.95,2.22-2.94,5.74-2.94,10.44Z"/>
  <path class="cls-1" d="M380.76,40.79l-.05,106.72h-27.6s.01-12.3.01-12.3l-1.72,1.82c-2.39,2.51-5.05,4.82-7.9,6.85-5.36,3.81-12.26,5.75-20.54,5.75-12.18,0-21.75-3.83-28.44-11.37-6.64-7.48-10-17.61-9.99-30.12l.03-67.39h27.6s-.03,60.25-.03,60.25c0,7.53,1.76,13.35,5.22,17.31,3.44,3.94,8.25,5.86,14.7,5.87,6.33,0,11.31-2,15.22-6.11,3.89-4.09,5.86-9.95,5.86-17.44l.03-59.85h27.6Z"/>
  <polygon class="cls-1" points="143.22 1.31 143.16 147.41 115.55 147.4 115.62 1.3 143.22 1.31"/>
  <path class="cls-1" d="M2.81,110.06c3.02-44.22,56.07-67.85,82.04-37.18l16.12-17.42c-10.49-12.45-26.21-20.66-43.76-20.35C25.22,35.67-.62,61.61,0,92.32c.13,6.19.99,12.15,2.81,17.74h0Z"/>
  <path class="cls-1" d="M84.88,112.08c-5.79,7.33-17.01,13.53-27.07,13.53-17.46,0-34.77-16.21-27.64-43.73,0,0-20.97,14.99-19.65,43.5,10.36,14.62,27.41,24.16,46.7,24.16,17.87,0,33.82-8.2,44.31-21.03l-16.65-16.43Z"/>
  <path class="cls-1" d="M780.16,40.72v4.66c-7.37-4.32-15.94-6.81-25.09-6.81-27.44,0-49.68,22.24-49.68,49.68s22.24,49.68,49.68,49.68c9.11,0,17.64-2.46,24.98-6.74.07.75.11,1.5.11,2.26,0,13.86-11.24,25.09-25.09,25.09-7.69,0-14.57-3.46-19.18-8.91l-24.63,10.57c9.02,14.74,25.26,24.57,43.8,24.57,28.34,0,51.32-22.98,51.32-51.32V40.72h-26.22ZM755.07,113.01c-13.67,0-24.76-11.08-24.76-24.76s11.08-24.76,24.76-24.76,24.76,11.08,24.76,24.76-11.08,24.76-24.76,24.76Z"/>
</svg>