<svg width="153" height="40" xmlns="http://www.w3.org/2000/svg">

 <metadata id="metadata918">image/svg+xml</metadata>
 <g>
  <title>background</title>
  <rect fill="none" id="canvas_background" height="42" width="155" y="-1" x="-1"/>
 </g>
 <g>
  <title>Layer 1</title>
  <path fill="#ffffff" fill-rule="nonzero" id="path464" d="m124.435858,30.537846l0.352338,0c0.124304,0 0.216032,0.030004 0.276041,0.090013c0.042006,0.060009 0.065152,0.138878 0.071153,0.237464c0.003429,0.098586 0.006001,0.198886 0.006001,0.301759l0,1.141883l0,5.198481l0,1.436783l0,0.334335c0,0.11916 -0.021432,0.21346 -0.064295,0.282042c-0.026575,0.042863 -0.062581,0.068582 -0.108873,0.076297c-0.048007,0.00943 -0.105444,0.021432 -0.174026,0.038577l-0.179169,0c-0.0943,0 -0.184313,-0.001715 -0.27004,-0.006001c-0.08487,-0.003429 -0.150022,-0.032576 -0.191171,-0.084012c-0.043721,-0.067724 -0.066867,-0.154308 -0.071153,-0.256324c-0.004286,-0.102872 -0.006858,-0.209174 -0.006858,-0.320619l0,-1.18046l0,-5.339073l0,-1.258471c0,-0.0943 -0.001715,-0.193743 -0.006001,-0.301759c-0.004286,-0.107159 0.013716,-0.189457 0.05658,-0.250323c0.034291,-0.050579 0.099443,-0.093442 0.193743,-0.126876c0.017145,-0.00943 0.035148,-0.012002 0.057437,-0.007715c0.020574,0.004286 0.039434,0.002572 0.058294,-0.006001"/>
  <path fill="#ffffff" fill-rule="nonzero" id="path468" d="m132.302505,37.776274c0.051436,-0.11916 0.078869,-0.258895 0.084012,-0.416633c0.004286,-0.158595 0.006001,-0.323191 0.006001,-0.494644c0,-0.093442 -0.004286,-0.180027 -0.012859,-0.256324c-0.008573,-0.077154 -0.043721,-0.136306 -0.102015,-0.180027c-0.026575,-0.017145 -0.086584,-0.025718 -0.180027,-0.025718c-0.018003,0.017145 -0.04715,0.025718 -0.090013,0.025718c-0.042863,0 -0.082298,0.008573 -0.115731,0.025718c-0.068582,0.018003 -0.144879,0.034291 -0.230605,0.051436c-0.085727,0.017145 -0.171454,0.034291 -0.257181,0.050579c-0.025718,0 -0.053151,0.003429 -0.083155,0.007715c-0.030004,0.004286 -0.062581,0.006001 -0.096014,0.006001c-0.12859,0.034291 -0.268325,0.053151 -0.418347,0.057437c-0.149165,0.004286 -0.288042,0.024004 -0.415776,0.057437c-0.069439,0.018003 -0.131162,0.033434 -0.186027,0.045435c-0.05658,0.012859 -0.117446,0.027433 -0.186027,0.044578c-0.13802,0.042863 -0.265753,0.096014 -0.385771,0.160309c-0.11916,0.064295 -0.222033,0.143164 -0.308617,0.238321c-0.08487,0.0943 -0.149165,0.207459 -0.192028,0.339479c-0.042006,0.132877 -0.060009,0.293186 -0.050579,0.481785c0,0.08487 0.013716,0.164596 0.044578,0.237464c0.030004,0.072011 0.065152,0.138878 0.108873,0.198886c0.067724,0.0943 0.157738,0.172311 0.269183,0.236606c0.111445,0.064295 0.231463,0.118303 0.360053,0.160309c0.042863,0.00943 0.08487,0.013716 0.127733,0.013716c0.042863,0 0.085727,0.004286 0.12859,0.012002c0.059152,0.017145 0.134591,0.029147 0.224605,0.032576c0.090013,0.004286 0.164596,-0.001715 0.224605,-0.01886c0.051436,-0.017145 0.102872,-0.024004 0.155166,-0.019717c0.050579,0.004286 0.101158,-0.001715 0.151737,-0.019717c0.069439,-0.016288 0.136306,-0.029147 0.199744,-0.038577c0.064295,-0.007715 0.126876,-0.025718 0.186027,-0.050579c0.247751,-0.102872 0.461211,-0.227176 0.636094,-0.372055c0.174883,-0.144879 0.310331,-0.34205 0.403774,-0.590659m1.836271,1.424782c0.025718,0.137163 0.012002,0.250323 -0.038577,0.339479c-0.051436,0.090013 -0.120018,0.156023 -0.206602,0.199744c-0.042863,0.017145 -0.087441,0.024861 -0.133734,0.024861c-0.04715,0 -0.096871,0.00943 -0.148308,0.025718c-0.187742,0.042863 -0.373769,0.032576 -0.558082,-0.031719c-0.183456,-0.064295 -0.311189,-0.143164 -0.378913,-0.237464c-0.042863,-0.060009 -0.080583,-0.130305 -0.115731,-0.211746c-0.033434,-0.081441 -0.076297,-0.14745 -0.126876,-0.198029c-0.018003,-0.018003 -0.03772,-0.035148 -0.059152,-0.052293c-0.020574,-0.016288 -0.048864,-0.021432 -0.084012,-0.012002c-0.093442,0.024861 -0.181741,0.072011 -0.262324,0.140592c-0.081441,0.068582 -0.160309,0.12859 -0.237464,0.180027c-0.110588,0.068582 -0.231463,0.130305 -0.358339,0.186027c-0.129448,0.054865 -0.265753,0.104587 -0.410632,0.14745c-0.086584,0.025718 -0.178312,0.042006 -0.276041,0.051436c-0.099443,0.007715 -0.195457,0.021432 -0.2889,0.03772c-0.043721,0.008573 -0.079726,0.012859 -0.10973,0.012859l-0.096014,0c-0.0943,0.017145 -0.184313,0.017145 -0.269183,0l-0.115731,0c-0.042863,-0.007715 -0.086584,-0.012859 -0.12859,-0.012859c-0.043721,0 -0.081441,-0.008573 -0.115731,-0.025718c-0.034291,-0.007715 -0.062581,-0.010287 -0.082298,-0.006001c-0.022289,0.003429 -0.045435,0.001715 -0.071153,-0.006001c-0.069439,-0.018003 -0.13802,-0.032576 -0.204887,-0.045435c-0.070296,-0.012859 -0.132877,-0.032576 -0.193743,-0.057437c-0.256324,-0.111445 -0.463783,-0.237464 -0.62152,-0.378056c-0.158595,-0.142307 -0.2889,-0.340336 -0.391772,-0.597517c-0.077154,-0.188599 -0.115731,-0.414918 -0.115731,-0.679815l0,-0.27004c0.008573,-0.042006 0.014574,-0.087441 0.01886,-0.134591c0.005144,-0.04715 0.011145,-0.096014 0.019717,-0.148308c0.034291,-0.093442 0.068582,-0.187742 0.102872,-0.281184c0.034291,-0.0943 0.077154,-0.180027 0.127733,-0.257181c0.154308,-0.247751 0.364339,-0.431206 0.628378,-0.552081c0.265753,-0.120018 0.556368,-0.227176 0.873557,-0.320619c0.11916,-0.034291 0.243464,-0.059152 0.372912,-0.077154c0.126876,-0.017145 0.256324,-0.038577 0.383199,-0.064295c0.060866,-0.017145 0.117446,-0.025718 0.174026,-0.025718c0.054865,0 0.117446,-0.007715 0.186027,-0.024861c0.060009,-0.018003 0.120018,-0.02829 0.180027,-0.031719c0.060009,-0.005144 0.125161,-0.016288 0.193743,-0.033434c0.212603,-0.050579 0.414061,-0.095157 0.601803,-0.134591c0.187742,-0.038577 0.337764,-0.134591 0.449209,-0.288042c0.051436,-0.069439 0.0943,-0.156023 0.12859,-0.263182c0.034291,-0.108016 0.034291,-0.225462 0,-0.354052c-0.052293,-0.204887 -0.126019,-0.367769 -0.224605,-0.486929c-0.098586,-0.120018 -0.238321,-0.21346 -0.41749,-0.282042c-0.102015,-0.042863 -0.224605,-0.072868 -0.365197,-0.090013c-0.141449,-0.017145 -0.2889,-0.025718 -0.443208,-0.025718c-0.153451,0 -0.304331,0.008573 -0.449209,0.025718c-0.144879,0.017145 -0.27004,0.042863 -0.372055,0.077154c-0.145736,0.050579 -0.286328,0.124304 -0.422634,0.217746c-0.069439,0.051436 -0.132019,0.117446 -0.186027,0.198886c-0.057437,0.081441 -0.106301,0.169739 -0.148308,0.263182c-0.026575,0.068582 -0.049722,0.140592 -0.071153,0.218604c-0.021432,0.076297 -0.062581,0.137163 -0.120875,0.179169c-0.035148,0.026575 -0.092585,0.044578 -0.174026,0.058294c-0.080583,0.012859 -0.164596,0.01886 -0.250323,0.01886c-0.085727,0 -0.168882,-0.006001 -0.250323,-0.01886c-0.080583,-0.013716 -0.138878,-0.031719 -0.172311,-0.058294c-0.036005,-0.025718 -0.060866,-0.068582 -0.078012,-0.12859c-0.017145,-0.059152 -0.017145,-0.124304 0,-0.192028c0.026575,-0.111445 0.054008,-0.216032 0.083155,-0.313761c0.030862,-0.099443 0.066867,-0.195457 0.108873,-0.289757c0.162881,-0.299187 0.368626,-0.531507 0.617234,-0.699532c0.247751,-0.16631 0.555511,-0.300902 0.924136,-0.404631c0.08487,-0.016288 0.172311,-0.030004 0.262324,-0.03772c0.090013,-0.008573 0.181741,-0.021432 0.276041,-0.038577c0.034291,-0.008573 0.090013,-0.010287 0.167168,-0.006858c0.077154,0.005144 0.124304,-0.001715 0.140592,-0.01886c0.599231,-0.007715 1.121308,0.060009 1.566231,0.205745c0.444923,0.144879 0.757826,0.422634 0.936138,0.834123c0.078012,0.170597 0.12259,0.369483 0.135449,0.596659c0.013716,0.227176 0.019717,0.463783 0.019717,0.712391l0,2.836704c0,0.11916 0.003429,0.234892 0.012002,0.346337c0.008573,0.111445 0.034291,0.201458 0.077154,0.27004c0.042863,0.058294 0.097729,0.102015 0.167168,0.126876c0.077154,0.035148 0.150022,0.058294 0.218604,0.071153c0.067724,0.012859 0.11916,0.054008 0.154308,0.121732c0.016288,0.026575 0.024861,0.051436 0.024861,0.077154c0,0.025718 0.004286,0.060009 0.013716,0.102872"/>
  <path fill="#ffffff" fill-rule="nonzero" id="path472" d="m141.800277,36.557165c0.017145,-0.042863 0.020574,-0.0943 0.012859,-0.154308c-0.00943,-0.059152 -0.012859,-0.115731 -0.012859,-0.16631c0,-0.144879 -0.006858,-0.282042 -0.019717,-0.410632c-0.012859,-0.12859 -0.040292,-0.244322 -0.083155,-0.346337c-0.026575,-0.085727 -0.048007,-0.162881 -0.063438,-0.231463c-0.018003,-0.067724 -0.043721,-0.136306 -0.078012,-0.204887c-0.0943,-0.214317 -0.22289,-0.414061 -0.384914,-0.597517c-0.162881,-0.184313 -0.35148,-0.322333 -0.56494,-0.416633c-0.068582,-0.025718 -0.133734,-0.049722 -0.198029,-0.070296c-0.065152,-0.021432 -0.131162,-0.041149 -0.199744,-0.058294c-0.0943,-0.025718 -0.187742,-0.040292 -0.282042,-0.045435c-0.095157,-0.004286 -0.197172,-0.006001 -0.308617,-0.006001c-0.042863,0.00943 -0.081441,0.015431 -0.115731,0.01886c-0.033434,0.004286 -0.072011,0.006858 -0.114874,0.006858c-0.077154,0.017145 -0.152594,0.034291 -0.225462,0.050579c-0.072011,0.018003 -0.142307,0.043721 -0.210888,0.078012c-0.290614,0.120018 -0.522077,0.297472 -0.693531,0.532364c-0.170597,0.235749 -0.30776,0.51179 -0.409775,0.828122c-0.035148,0.0943 -0.05658,0.188599 -0.064295,0.282042c-0.00943,0.0943 -0.026575,0.192028 -0.051436,0.294901c-0.008573,0.042863 -0.008573,0.082298 0,0.115731c0.008573,0.035148 0.005144,0.072868 -0.012859,0.115731c-0.00943,0.042863 -0.013716,0.105444 -0.013716,0.18517c0,0.082298 0.004286,0.144879 0.013716,0.186885l0,0.102872c0.008573,0.033434 0.012859,0.068582 0.012859,0.102015c0,0.034291 0.005144,0.064295 0.012002,0.090013c0.008573,0.026575 0.012859,0.054008 0.012859,0.084012c0,0.029147 0.005144,0.058294 0.013716,0.083155c0.017145,0.068582 0.031719,0.137163 0.043721,0.205745c0.012859,0.068582 0.02829,0.137163 0.045435,0.204887c0.0943,0.291472 0.225462,0.538365 0.391772,0.74411c0.16631,0.204887 0.374627,0.377199 0.623235,0.513504c0.076297,0.042863 0.157738,0.074582 0.242607,0.096014c0.085727,0.021432 0.17574,0.045435 0.27004,0.070296c0.042863,0.018003 0.084012,0.024004 0.121732,0.019717c0.038577,-0.003429 0.079726,-0.001715 0.121732,0.006001c0.034291,0.00943 0.072868,0.013716 0.115731,0.013716l0.115731,0l0.114874,0c0.034291,-0.008573 0.064295,-0.013716 0.090871,-0.013716c0.024861,0 0.054865,-0.003429 0.089156,-0.012002c0.068582,-0.017145 0.133734,-0.032576 0.192886,-0.044578c0.059152,-0.013716 0.124304,-0.032576 0.192886,-0.058294c0.264039,-0.111445 0.478356,-0.258895 0.641237,-0.442351c0.162024,-0.184313 0.299187,-0.408917 0.410632,-0.674671c0.042863,-0.11916 0.074582,-0.240893 0.096014,-0.365197c0.021432,-0.123447 0.049722,-0.250323 0.084012,-0.378056c0.017145,-0.042863 0.023146,-0.084012 0.01886,-0.12259c-0.005144,-0.038577 -0.001715,-0.078869 0.006858,-0.121732l0,-0.090013zm1.141025,-0.334335c0.008573,0.042863 0.013716,0.101158 0.013716,0.174026c0,0.072011 -0.005144,0.130305 -0.013716,0.174026c0,0.033434 -0.001715,0.065152 -0.006001,0.096014c-0.003429,0.029147 -0.005144,0.06601 -0.005144,0.108873c-0.018003,0.068582 -0.027433,0.137163 -0.027433,0.205745c0,0.067724 -0.007715,0.136306 -0.024861,0.204887c-0.008573,0.033434 -0.012859,0.06601 -0.012859,0.096014c0,0.030004 -0.005144,0.062581 -0.012859,0.096014c-0.025718,0.0943 -0.048864,0.184313 -0.070296,0.27004c-0.022289,0.085727 -0.049722,0.170597 -0.084012,0.256324c-0.11916,0.299187 -0.264896,0.56837 -0.435493,0.808405c-0.171454,0.239178 -0.385771,0.444923 -0.642095,0.616377c-0.129448,0.08487 -0.252037,0.158595 -0.372055,0.217746c-0.095157,0.042863 -0.186027,0.077154 -0.276041,0.102872c-0.089156,0.025718 -0.181741,0.051436 -0.275183,0.077154c-0.060866,0.017145 -0.116589,0.027433 -0.168025,0.032576c-0.050579,0.003429 -0.102015,0.013716 -0.154308,0.031719l-0.127733,0c-0.042863,0.017145 -0.107159,0.027433 -0.192886,0.031719c-0.085727,0.004286 -0.153451,-0.002572 -0.204887,-0.01886l-0.12859,0c-0.034291,-0.00943 -0.070296,-0.012859 -0.108873,-0.012859c-0.038577,0 -0.079726,-0.004286 -0.121732,-0.013716c-0.127733,-0.033434 -0.255466,-0.063438 -0.378913,-0.088299c-0.124304,-0.026575 -0.246036,-0.065152 -0.366054,-0.116589c-0.171454,-0.068582 -0.324905,-0.153451 -0.461211,-0.256324c-0.052293,-0.042863 -0.102872,-0.088299 -0.154308,-0.135449c-0.052293,-0.046293 -0.111445,-0.078012 -0.180027,-0.096014c-0.050579,-0.007715 -0.091728,0.002572 -0.12259,0.031719c-0.029147,0.030862 -0.051436,0.072011 -0.063438,0.12259c-0.012859,0.051436 -0.021432,0.104587 -0.025718,0.160309c-0.004286,0.055723 -0.014574,0.096014 -0.032576,0.121732c-0.033434,0.042863 -0.072868,0.081441 -0.115731,0.115731c-0.042006,0.017145 -0.099443,0.027433 -0.173168,0.032576c-0.072868,0.004286 -0.149165,0.006001 -0.231463,0.006001c-0.079726,0 -0.154308,-0.006001 -0.224605,-0.019717c-0.067724,-0.012002 -0.11916,-0.027433 -0.152594,-0.044578c-0.018003,-0.017145 -0.035148,-0.038577 -0.052293,-0.064295c-0.016288,-0.025718 -0.033434,-0.051436 -0.051436,-0.076297c-0.024861,-0.068582 -0.036005,-0.171454 -0.031719,-0.308617c0.004286,-0.137163 0.006858,-0.252037 0.006858,-0.346337l0,-7.53454c0,-0.102015 -0.002572,-0.210888 -0.006858,-0.32662c-0.004286,-0.114874 0.015431,-0.207459 0.058294,-0.276041c0.034291,-0.050579 0.089156,-0.0943 0.167168,-0.12859c0.016288,0 0.03772,-0.001715 0.062581,-0.006001c0.027433,-0.004286 0.048007,-0.006001 0.065152,-0.006001c0.120018,-0.00943 0.246036,-0.012002 0.378056,-0.007715c0.133734,0.006001 0.225462,0.041149 0.276898,0.10973c0.042863,0.068582 0.063438,0.164596 0.063438,0.2889l0,0.352338l0,1.501936l0,0.212603c0,0.080583 0.002572,0.162881 0.006858,0.242607c0.003429,0.082298 0.012859,0.154308 0.024861,0.219461c0.013716,0.063438 0.036863,0.108873 0.072011,0.134591c0.033434,0.025718 0.072868,0.030004 0.114017,0.012002c0.042863,-0.016288 0.078012,-0.033434 0.10373,-0.051436c0.042006,-0.033434 0.083155,-0.067724 0.120875,-0.102015c0.038577,-0.034291 0.079726,-0.067724 0.123447,-0.102872c0.058294,-0.042863 0.121732,-0.080583 0.186027,-0.115731c0.063438,-0.033434 0.130305,-0.068582 0.198886,-0.102015c0.153451,-0.077154 0.337764,-0.132877 0.552081,-0.167168c0.212603,-0.033434 0.431206,-0.051436 0.654096,-0.051436c0.222033,0 0.439779,0.019717 0.654096,0.058294c0.214317,0.03772 0.402059,0.091728 0.56494,0.160309c0.34205,0.144879 0.636951,0.346337 0.884702,0.60266c0.249465,0.256324 0.444923,0.556368 0.591516,0.899276c0.042006,0.0943 0.078012,0.186027 0.108873,0.275183c0.030004,0.090871 0.061723,0.182598 0.096014,0.276041c0.025718,0.0943 0.045435,0.190314 0.057437,0.2889c0.012859,0.098586 0.02829,0.1946 0.044578,0.2889c0.00943,0.025718 0.013716,0.053151 0.013716,0.083155c0,0.030004 0.004286,0.057437 0.013716,0.083155c0.015431,0.052293 0.018003,0.101158 0.005144,0.148308c-0.012002,0.04715 -0.010287,0.096014 0.006001,0.146593"/>
  <path fill="#ffffff" fill-rule="nonzero" id="path476" d="m147.728663,32.912228c0.616377,-0.008573 1.134167,0.062581 1.553372,0.211746c0.419205,0.150022 0.744967,0.412347 0.975572,0.789545c0.060009,0.093442 0.107159,0.189457 0.140592,0.2889c0.035148,0.098586 0.068582,0.207459 0.102872,0.32662c0.017145,0.060866 0.022289,0.121732 0.012859,0.186027c-0.008573,0.064295 -0.020574,0.11316 -0.03772,0.148308c-0.018003,0.016288 -0.038577,0.031719 -0.064295,0.044578c-0.025718,0.012859 -0.04715,0.02829 -0.065152,0.045435c-0.042006,0.016288 -0.08487,0.021432 -0.127733,0.012002c-0.043721,-0.007715 -0.086584,-0.007715 -0.12859,0c-0.067724,0.018003 -0.157738,0.019717 -0.269183,0.006858c-0.111445,-0.012859 -0.187742,-0.032576 -0.230605,-0.057437c-0.068582,-0.042863 -0.114017,-0.100301 -0.135449,-0.174026c-0.021432,-0.072011 -0.054008,-0.143164 -0.096014,-0.211746c-0.077154,-0.136306 -0.184313,-0.26061 -0.319761,-0.372055c-0.096014,-0.067724 -0.198029,-0.120018 -0.309474,-0.153451c-0.110588,-0.034291 -0.230605,-0.068582 -0.359196,-0.10373c-0.042863,-0.016288 -0.085727,-0.023146 -0.12859,-0.01886c-0.042863,0.005144 -0.085727,0.002572 -0.127733,-0.006001c-0.051436,-0.016288 -0.115731,-0.025718 -0.192886,-0.025718c-0.077154,0 -0.141449,0.00943 -0.192886,0.025718l-0.076297,0c-0.043721,0.008573 -0.085727,0.015431 -0.127733,0.01886c-0.043721,0.004286 -0.086584,0.011145 -0.129448,0.019717c-0.222033,0.050579 -0.406346,0.123447 -0.552081,0.218604c-0.144879,0.0943 -0.244322,0.252037 -0.294901,0.47407c-0.017145,0.060009 -0.019717,0.120875 -0.006001,0.180027c0.012002,0.060009 0.027433,0.111445 0.045435,0.153451c0.050579,0.12859 0.11316,0.221175 0.18517,0.276041c0.072868,0.055723 0.164596,0.117446 0.276041,0.186027c0.137163,0.085727 0.290614,0.148308 0.462068,0.186027c0.170597,0.038577 0.342908,0.084012 0.513504,0.134591c0.110588,0.035148 0.222033,0.060866 0.333478,0.078012c0.111445,0.017145 0.222033,0.042863 0.333478,0.076297c0.180027,0.051436 0.35491,0.101158 0.526363,0.148308c0.171454,0.04715 0.34205,0.104587 0.513504,0.172311c0.042863,0.018003 0.085727,0.035148 0.129448,0.052293c0.041149,0.016288 0.084012,0.03772 0.126876,0.063438c0.172311,0.102872 0.320619,0.218604 0.450066,0.347194c0.12859,0.127733 0.234892,0.290614 0.319761,0.486929c0.018003,0.060866 0.034291,0.141449 0.051436,0.244322c0.018003,0.060009 0.027433,0.121732 0.032576,0.186027c0.004286,0.064295 0.006858,0.135449 0.006858,0.211746l0,0.12859c-0.018003,0.059152 -0.025718,0.11916 -0.025718,0.180027c0,0.059152 -0.00943,0.120018 -0.025718,0.179169c-0.025718,0.0943 -0.055723,0.184313 -0.090013,0.269183c-0.034291,0.085727 -0.072868,0.162024 -0.114874,0.230605c-0.137163,0.22289 -0.313761,0.400345 -0.526363,0.533222c-0.214317,0.133734 -0.454353,0.246036 -0.720106,0.340336c-0.076297,0.025718 -0.155166,0.044578 -0.236606,0.057437c-0.081441,0.013716 -0.161167,0.032576 -0.237464,0.058294c-0.085727,0.017145 -0.170597,0.025718 -0.256324,0.025718c-0.086584,0 -0.171454,0.007715 -0.257181,0.024861l-0.12859,0c-0.042863,0.00943 -0.102872,0.013716 -0.180027,0.013716c-0.076297,0 -0.136306,-0.004286 -0.179169,-0.013716l-0.141449,0c-0.050579,-0.017145 -0.107159,-0.023146 -0.16631,-0.01886c-0.060009,0.003429 -0.111445,-0.002572 -0.153451,-0.019717c-0.043721,-0.008573 -0.100301,-0.012002 -0.167168,-0.012002c-0.068582,-0.018003 -0.134591,-0.032576 -0.199744,-0.044578c-0.064295,-0.013716 -0.130305,-0.033434 -0.198886,-0.058294c-0.264896,-0.085727 -0.496359,-0.192886 -0.691816,-0.321476c-0.197172,-0.127733 -0.369483,-0.294901 -0.514362,-0.500645c-0.077154,-0.110588 -0.141449,-0.226319 -0.192028,-0.34548c-0.052293,-0.120018 -0.099443,-0.252894 -0.142307,-0.397773c-0.016288,-0.052293 -0.023146,-0.114017 -0.018003,-0.186885c0.004286,-0.072868 0.013716,-0.130305 0.031719,-0.173168c0.024861,-0.034291 0.067724,-0.068582 0.12859,-0.102872c0.042863,-0.016288 0.102872,-0.027433 0.180027,-0.031719c0.077154,-0.004286 0.153451,-0.001715 0.229748,0.006001c0.077154,0.00943 0.151737,0.019717 0.225462,0.032576c0.072011,0.012859 0.121732,0.027433 0.146593,0.044578c0.060866,0.043721 0.101158,0.105444 0.12259,0.186027c0.021432,0.081441 0.049722,0.15688 0.083155,0.225462c0.086584,0.187742 0.201458,0.33262 0.347194,0.43635c0.102872,0.076297 0.218604,0.136306 0.346337,0.179169c0.127733,0.043721 0.264896,0.08487 0.410632,0.127733l0.269183,0.039434l0.078012,0c0.058294,0.017145 0.13802,0.025718 0.235749,0.025718c0.100301,0 0.182598,-0.008573 0.25118,-0.025718c0.060009,0 0.107159,-0.004286 0.141449,-0.013716c0.051436,-0.007715 0.102872,-0.014574 0.154308,-0.018003c0.049722,-0.005144 0.096871,-0.011145 0.140592,-0.019717c0.247751,-0.068582 0.444923,-0.158595 0.589801,-0.27004c0.146593,-0.110588 0.247751,-0.299187 0.308617,-0.564083c0.016288,-0.043721 0.021432,-0.090871 0.012002,-0.141449c-0.007715,-0.051436 -0.016288,-0.090013 -0.024861,-0.115731c-0.043721,-0.162024 -0.102015,-0.284613 -0.180027,-0.366054c-0.076297,-0.080583 -0.174026,-0.155166 -0.294901,-0.224605c-0.076297,-0.050579 -0.162881,-0.093442 -0.256324,-0.12859c-0.0943,-0.033434 -0.188599,-0.067724 -0.282042,-0.102015c-0.025718,-0.008573 -0.048864,-0.013716 -0.071153,-0.013716c-0.021432,0 -0.044578,-0.007715 -0.071153,-0.024861c-0.290614,-0.0943 -0.592373,-0.164596 -0.903562,-0.211746c-0.312903,-0.046293 -0.606089,-0.126019 -0.880416,-0.237464c-0.08487,-0.033434 -0.165453,-0.064295 -0.243464,-0.090013c-0.077154,-0.025718 -0.149165,-0.059152 -0.217746,-0.102872c-0.162881,-0.093442 -0.312903,-0.200601 -0.449209,-0.320619c-0.137163,-0.11916 -0.243464,-0.269183 -0.321476,-0.449209c-0.025718,-0.059152 -0.043721,-0.11916 -0.05658,-0.179169c-0.013716,-0.059152 -0.02829,-0.124304 -0.045435,-0.192886c-0.026575,-0.102872 -0.035148,-0.220318 -0.026575,-0.353195c0.00943,-0.132877 0.021432,-0.246036 0.039434,-0.340336c0.016288,-0.041149 0.026575,-0.078012 0.032576,-0.108016c0.003429,-0.030862 0.014574,-0.062581 0.030862,-0.097729c0.077154,-0.195457 0.181741,-0.366911 0.315475,-0.512647c0.132019,-0.145736 0.283756,-0.273469 0.454353,-0.384914c0.12859,-0.076297 0.270897,-0.138878 0.424348,-0.186027c0.153451,-0.04715 0.315475,-0.091728 0.487786,-0.134591c0.059152,-0.00943 0.117446,-0.017145 0.172311,-0.025718c0.05658,-0.008573 0.11916,-0.017145 0.186885,-0.025718c0.025718,-0.008573 0.060009,-0.008573 0.102015,0c0.042863,0.008573 0.072868,0.005144 0.090013,-0.012859"/>
  <path fill="#ffffff" fill-rule="nonzero" id="path480" d="m54.794654,18.531625c0.042863,-0.106301 0.063438,-0.248608 0.063438,-0.428635c0,-0.180027 -0.020574,-0.323191 -0.063438,-0.429492l0,-0.476642c-0.042863,-0.190314 -0.074582,-0.386628 -0.0943,-0.587229c-0.022289,-0.201458 -0.065152,-0.385771 -0.12859,-0.556368c-0.042863,-0.168882 -0.078869,-0.327477 -0.111445,-0.476642c-0.030862,-0.14745 -0.078869,-0.296615 -0.142307,-0.444066c-0.253752,-0.636094 -0.582086,-1.197605 -0.985002,-1.684534c-0.402917,-0.486929 -0.91042,-0.868414 -1.525082,-1.143597c-0.211746,-0.106301 -0.429492,-0.186027 -0.651525,-0.238321c-0.222033,-0.052293 -0.461211,-0.100301 -0.714963,-0.143164c-0.169739,-0.042006 -0.35491,-0.063438 -0.556368,-0.063438l-0.587229,0c-0.106301,0.021432 -0.200601,0.03772 -0.285471,0.04715c-0.085727,0.011145 -0.180884,0.016288 -0.285471,0.016288c-0.170597,0.042863 -0.344622,0.08487 -0.524649,0.126876c-0.180884,0.042006 -0.355767,0.096014 -0.523792,0.158595c-0.678957,0.296615 -1.224181,0.726107 -1.636527,1.287619c-0.413204,0.561511 -0.747539,1.212179 -1.001291,1.954574c-0.085727,0.23232 -0.142307,0.470641 -0.174883,0.714105c-0.031719,0.243464 -0.069439,0.481785 -0.111445,0.714105c0,0.08487 -0.005144,0.165453 -0.015431,0.239178c-0.012002,0.073725 -0.016288,0.153451 -0.016288,0.237464c-0.042006,0.106301 -0.058294,0.22289 -0.04715,0.350623c0.00943,0.126019 0.014574,0.242607 0.014574,0.348909l0,0.683244c0,0.222033 0.021432,0.428635 0.064295,0.618948c0.020574,0.064295 0.032576,0.170597 0.032576,0.318047c0.042006,0.149165 0.078869,0.296615 0.111445,0.444923c0.030862,0.148308 0.066867,0.297472 0.110588,0.444923c0.23232,0.741538 0.551224,1.377632 0.952426,1.906567c0.402059,0.528935 0.91042,0.963571 1.525082,1.302192c0.192028,0.106301 0.382342,0.191171 0.571799,0.253752c0.191171,0.064295 0.402917,0.127733 0.635237,0.191171c0.107159,0.043721 0.218604,0.053151 0.334335,0.031719c0.115731,-0.021432 0.227176,-0.00943 0.33262,0.031719c0.085727,0.021432 0.17574,0.032576 0.270897,0.032576l0.27004,0l0.286328,0c0.063438,-0.021432 0.168882,-0.032576 0.318047,-0.032576c0.168882,-0.041149 0.338621,-0.078869 0.508361,-0.110588c0.168025,-0.032576 0.327477,-0.079726 0.475784,-0.144021c0.699532,-0.295758 1.266187,-0.671242 1.700822,-1.127309c0.433778,-0.45521 0.798975,-1.03301 1.096447,-1.731684c0.104587,-0.23232 0.179169,-0.465497 0.221175,-0.698675c0.042863,-0.233177 0.096014,-0.465497 0.158595,-0.699532c0.042863,-0.084012 0.064295,-0.163738 0.064295,-0.237464c0,-0.073725 0.010287,-0.154308 0.031719,-0.239178c0.020574,-0.126876 0.025718,-0.253752 0.015431,-0.380628c-0.010287,-0.127733 -0.005144,-0.253752 0.016288,-0.381485m2.573523,6.005172l0,0.809262c0,0.265753 -0.053151,0.482643 -0.158595,0.652382c-0.106301,0.14745 -0.281184,0.228034 -0.524649,0.237464c-0.243464,0.012002 -0.49293,0.016288 -0.746682,0.016288c-0.126019,0 -0.249465,0.005144 -0.365197,0.016288c-0.116589,0.010287 -0.216889,-0.006001 -0.301759,-0.048007c-0.190314,-0.042006 -0.31719,-0.126876 -0.382342,-0.254609c-0.084012,-0.104587 -0.132019,-0.23232 -0.142307,-0.380628c-0.010287,-0.148308 -0.046293,-0.296615 -0.111445,-0.444923c-0.020574,-0.042006 -0.046293,-0.078869 -0.078869,-0.111445c-0.032576,-0.031719 -0.068582,-0.068582 -0.111445,-0.111445c-0.211746,-0.020574 -0.375484,0.021432 -0.492073,0.127733c-0.116589,0.106301 -0.238321,0.211746 -0.365197,0.31719c-0.425206,0.318047 -0.847839,0.562369 -1.27133,0.731251c-0.381485,0.168882 -0.821264,0.295758 -1.319337,0.381485c-0.497216,0.084012 -1.006434,0.132019 -1.525082,0.142307c-0.518648,0.010287 -1.032152,-0.020574 -1.539656,-0.095157c-0.509218,-0.073725 -0.953283,-0.196315 -1.334768,-0.365197c-1.101591,-0.466355 -1.991437,-1.09559 -2.668679,-1.890279c-0.678957,-0.794689 -1.207892,-1.784835 -1.58852,-2.971295c-0.085727,-0.190314 -0.144021,-0.386628 -0.174883,-0.587229c-0.032576,-0.201458 -0.080583,-0.40806 -0.144021,-0.619806c-0.020574,-0.105444 -0.030862,-0.211746 -0.030862,-0.318047c0,-0.105444 -0.012002,-0.210888 -0.032576,-0.318047c-0.042006,-0.104587 -0.058294,-0.216032 -0.048007,-0.33262c0.011145,-0.116589 0.006001,-0.228034 -0.014574,-0.334335l0,-0.31719c-0.042863,-0.105444 -0.064295,-0.242607 -0.064295,-0.413204c0,-0.168882 0.021432,-0.306045 0.064295,-0.413204l0,-0.348909c0.042006,-0.148308 0.057437,-0.302616 0.04715,-0.461211c-0.010287,-0.159452 0.005144,-0.312046 0.048007,-0.460354c0.020574,-0.105444 0.030862,-0.201458 0.030862,-0.286328c0,-0.084012 0.011145,-0.179169 0.032576,-0.285471c0.064295,-0.211746 0.116589,-0.418347 0.159452,-0.619806c0.041149,-0.201458 0.0943,-0.397773 0.158595,-0.588087c0.274326,-0.804119 0.629236,-1.530226 1.063014,-2.176607c0.433778,-0.645524 0.958427,-1.179603 1.573946,-1.603951c0.359196,-0.254609 0.735537,-0.465497 1.127309,-0.635237c0.392629,-0.169739 0.820407,-0.318047 1.286761,-0.444923c0.149165,-0.020574 0.291472,-0.042006 0.428635,-0.063438c0.137163,-0.021432 0.281184,-0.052293 0.429492,-0.096014l0.318047,0c0.168025,-0.041149 0.41749,-0.063438 0.746682,-0.063438c0.327477,0 0.576085,0.022289 0.746682,0.063438c0.083155,0.022289 0.200601,0.032576 0.348909,0.032576c0.233177,0.063438 0.465497,0.110588 0.699532,0.142307c0.23232,0.031719 0.45521,0.101158 0.666956,0.206602c0.318047,0.126876 0.619806,0.264896 0.906134,0.413204c0.284613,0.148308 0.555511,0.31719 0.809262,0.508361c0.127733,0.106301 0.259753,0.216889 0.39863,0.33262c0.137163,0.118303 0.322333,0.154308 0.555511,0.111445c0.041149,-0.062581 0.078869,-0.115731 0.111445,-0.158595c0.030862,-0.041149 0.05658,-0.105444 0.078012,-0.190314c0.064295,-0.190314 0.090013,-0.433778 0.079726,-0.730393c-0.010287,-0.296615 -0.015431,-0.561511 -0.015431,-0.794689l0,-3.653682l0,-1.000433c0,-0.371198 0.052293,-0.64038 0.157738,-0.810977c0.085727,-0.14745 0.21346,-0.243464 0.382342,-0.285471c0.042006,0 0.095157,-0.006001 0.158595,-0.016288c0.063438,-0.011145 0.116589,-0.015431 0.159452,-0.015431c0.296615,-0.021432 0.608661,-0.026575 0.936138,-0.015431c0.329191,0.010287 0.556368,0.100301 0.684101,0.269183c0.105444,0.170597 0.158595,0.381485 0.158595,0.635237l0,0.794689l0,19.190831z"/>
  <path fill="#ffffff" fill-rule="nonzero" id="path484" d="m72.681838,16.3394c0.063438,-0.08487 0.116589,-0.196315 0.159452,-0.334335c0.042863,-0.137163 0.042863,-0.27947 0,-0.427777c-0.127733,-0.466355 -0.306902,-0.90099 -0.540937,-1.303907c-0.296615,-0.486072 -0.624949,-0.899276 -0.984145,-1.237897c-0.36091,-0.339479 -0.826408,-0.624949 -1.398206,-0.858127c-0.149165,-0.042863 -0.296615,-0.079726 -0.44578,-0.111445c-0.14745,-0.031719 -0.306045,-0.069439 -0.476642,-0.110588c-0.168882,-0.042863 -0.348051,-0.064295 -0.538365,-0.064295l-0.540937,0c-0.063438,0.042863 -0.13802,0.058294 -0.22289,0.048007c-0.084012,-0.011145 -0.158595,-0.005144 -0.22289,0.016288c-0.168882,0.041149 -0.33262,0.078869 -0.491215,0.110588c-0.158595,0.031719 -0.313761,0.068582 -0.461211,0.111445c-0.613805,0.253752 -1.106735,0.570941 -1.477075,0.952426c-0.371198,0.381485 -0.703818,0.858127 -1.000433,1.429925c-0.063438,0.107159 -0.127733,0.238321 -0.192028,0.396916c-0.061723,0.158595 -0.116589,0.334335 -0.158595,0.524649c-0.042863,0.190314 -0.052293,0.371198 -0.030862,0.54008c0.020574,0.168882 0.095157,0.296615 0.222033,0.381485c0.169739,0.126876 0.461211,0.186027 0.873557,0.174883c0.413204,-0.010287 0.768113,-0.015431 1.064729,-0.015431l4.828998,0c0.318047,0 0.699532,0.005144 1.143597,0.015431c0.44578,0.011145 0.742395,-0.069439 0.889846,-0.238321m3.081883,1.079302c0.042006,0.21346 0.048007,0.450924 0.016288,0.71582c-0.031719,0.264896 -0.101158,0.450924 -0.206602,0.555511c-0.106301,0.08487 -0.259753,0.144021 -0.460354,0.174883c-0.201458,0.031719 -0.429492,0.048007 -0.683244,0.048007c-0.253752,0 -0.509218,-0.005144 -0.763827,-0.016288c-0.253752,-0.010287 -0.475784,-0.015431 -0.666098,-0.015431l-8.133771,0c-0.170597,0 -0.338621,0.005144 -0.508361,0.015431c-0.169739,0.011145 -0.306902,0.04715 -0.414061,0.111445c-0.083155,0.042863 -0.168882,0.127733 -0.253752,0.253752c-0.042863,0.064295 -0.084012,0.154308 -0.126019,0.27004c-0.042863,0.116589 -0.042863,0.228034 0,0.334335c0.020574,0.105444 0.030862,0.201458 0.030862,0.285471c0,0.08487 0.011145,0.170597 0.031719,0.254609c0.042863,0.169739 0.08487,0.344622 0.127733,0.524649c0.042006,0.179169 0.106301,0.354052 0.189457,0.523792c0.487786,1.143597 1.292762,1.959718 2.414928,2.446647c0.127733,0.063438 0.264896,0.116589 0.414061,0.158595c0.14745,0.042863 0.296615,0.08487 0.444066,0.127733c0.064295,0.019717 0.170597,0.030862 0.318047,0.030862c0.296615,0.085727 0.688387,0.126876 1.176174,0.126876c0.486929,0 0.877844,-0.041149 1.174459,-0.126876c0.296615,-0.08487 0.566655,-0.174883 0.810977,-0.27004c0.243464,-0.095157 0.471498,-0.216032 0.683244,-0.365197c0.233177,-0.14745 0.432921,-0.322333 0.603518,-0.524649c0.168882,-0.200601 0.31719,-0.41749 0.444923,-0.651525c0.126019,-0.210888 0.237464,-0.433778 0.334335,-0.666956c0.0943,-0.23232 0.258895,-0.402059 0.492073,-0.507503c0.083155,-0.042863 0.22289,-0.073725 0.411489,-0.095157c0.192028,-0.021432 0.382342,-0.027433 0.572656,-0.016288c0.191171,0.010287 0.371198,0.026575 0.54008,0.04715c0.168882,0.021432 0.286328,0.064295 0.349766,0.127733c0.210888,0.14745 0.264896,0.391772 0.158595,0.730393c-0.169739,0.571799 -0.391772,1.080159 -0.666956,1.525082c-0.424348,0.677243 -0.906134,1.234468 -1.445356,1.668246c-0.540937,0.434636 -1.223323,0.788688 -2.048874,1.064729c-0.212603,0.084012 -0.425206,0.142307 -0.636094,0.174026c-0.212603,0.032576 -0.433778,0.068582 -0.667813,0.111445c-0.105444,0.020574 -0.205745,0.032576 -0.301759,0.032576c-0.0943,0 -0.195457,0.00943 -0.301759,0.030862l-0.31719,0c-0.106301,0.021432 -0.228034,0.031719 -0.365197,0.031719c-0.138878,0 -0.250323,-0.010287 -0.333478,-0.031719l-0.286328,0c-0.107159,-0.021432 -0.201458,-0.030862 -0.286328,-0.030862c-0.085727,0 -0.168882,-0.012002 -0.253752,-0.032576c-0.105444,-0.021432 -0.22289,-0.03772 -0.349766,-0.048007c-0.126876,-0.010287 -0.243464,-0.026575 -0.349766,-0.04715c-0.190314,-0.042863 -0.380628,-0.090871 -0.571799,-0.143164c-0.190314,-0.053151 -0.37034,-0.111445 -0.539222,-0.174883c-0.085727,-0.042006 -0.159452,-0.068582 -0.22289,-0.078869c-0.064295,-0.011145 -0.13802,-0.036863 -0.22289,-0.079726c-0.31719,-0.14745 -0.656668,-0.327477 -1.016721,-0.540937c-0.614662,-0.401202 -1.138454,-0.894132 -1.573089,-1.477075c-0.434636,-0.582086 -0.799832,-1.233611 -1.09559,-1.953717c-0.105444,-0.233177 -0.186027,-0.475784 -0.238321,-0.730393c-0.052293,-0.254609 -0.121732,-0.509218 -0.206602,-0.76297c-0.020574,-0.08487 -0.031719,-0.158595 -0.031719,-0.22289c0,-0.062581 -0.010287,-0.14745 -0.030862,-0.253752c-0.043721,-0.168882 -0.074582,-0.348909 -0.096014,-0.540937c-0.020574,-0.189457 -0.053151,-0.37977 -0.095157,-0.571799l0,-0.444066c-0.021432,-0.084012 -0.036863,-0.206602 -0.04715,-0.365197c-0.012002,-0.158595 -0.006858,-0.291472 0.015431,-0.397773l0,-0.348909c0.042006,-0.106301 0.058294,-0.217746 0.04715,-0.334335c-0.010287,-0.115731 -0.005144,-0.227176 0.016288,-0.33262c0.08487,-0.338621 0.153451,-0.6781 0.205745,-1.016721c0.053151,-0.339479 0.144021,-0.656668 0.270897,-0.954141c0.105444,-0.23232 0.206602,-0.470641 0.301759,-0.714105c0.0943,-0.243464 0.205745,-0.481785 0.333478,-0.71582c0.465497,-0.740681 0.994432,-1.381061 1.587663,-1.921141c0.594088,-0.540937 1.325338,-0.990146 2.193752,-1.350199c0.253752,-0.106301 0.51179,-0.186027 0.778401,-0.239178c0.264896,-0.052293 0.545223,-0.111445 0.841838,-0.174026c0.106301,-0.020574 0.200601,-0.036863 0.285471,-0.048007c0.08487,-0.010287 0.180027,-0.016288 0.286328,-0.016288c0.042006,-0.020574 0.095157,-0.020574 0.158595,0c0.064295,0.022289 0.116589,0.011145 0.159452,-0.030862c0.889846,-0.021432 1.662245,0.068582 2.318914,0.269183c0.656668,0.201458 1.249899,0.471498 1.778834,0.810977c0.106301,0.042006 0.191171,0.100301 0.253752,0.174883c0.065152,0.073725 0.138878,0.131162 0.22289,0.174026c0.169739,0.127733 0.344622,0.275183 0.524649,0.444923c0.179169,0.169739 0.334335,0.339479 0.461211,0.508361c0.338621,0.44578 0.623235,0.868414 0.858127,1.27133c0.14745,0.23232 0.264039,0.486929 0.348051,0.762112c0.085727,0.275183 0.180027,0.551224 0.287185,0.826408c0.104587,0.276041 0.18517,0.560654 0.237464,0.857269c0.053151,0.296615 0.121732,0.59323 0.206602,0.889846c0.020574,0.148308 0.03772,0.296615 0.04715,0.444923c0.011145,0.148308 0.027433,0.296615 0.048007,0.444066"/>
  <path fill="#ffffff" fill-rule="nonzero" id="path488" d="m78.050996,9.889475l1.017579,0c0.359196,0 0.634379,0.063438 0.824693,0.190314c0.14745,0.106301 0.249465,0.238321 0.302616,0.397773c0.052293,0.158595 0.111445,0.322333 0.174883,0.492073c0.126019,0.296615 0.23232,0.592373 0.318047,0.888988c0.08487,0.296615 0.180027,0.594088 0.285471,0.890703c0.423491,1.143597 0.814406,2.292338 1.176174,3.44708c0.360053,1.154742 0.750968,2.303483 1.174459,3.44708c0.148308,0.381485 0.275183,0.768113 0.382342,1.159885c0.105444,0.391772 0.242607,0.777543 0.411489,1.159885c0.042863,0.148308 0.096871,0.30776 0.159452,0.476642c0.063438,0.168882 0.169739,0.275183 0.318047,0.31719c0.169739,0.042863 0.302616,-0.030862 0.397773,-0.222033c0.0943,-0.191171 0.163738,-0.338621 0.205745,-0.444923c0.169739,-0.402059 0.312046,-0.81012 0.429492,-1.223323c0.116589,-0.413204 0.248608,-0.831551 0.396916,-1.254185c0.275183,-0.805833 0.540937,-1.605665 0.794689,-2.39864c0.253752,-0.794689 0.518648,-1.593664 0.793831,-2.399497c0.104587,-0.360053 0.211746,-0.714963 0.318047,-1.065586c0.105444,-0.348909 0.23232,-0.692674 0.380628,-1.032152c0.106301,-0.295758 0.201458,-0.592373 0.286328,-0.888988c0.08487,-0.296615 0.180027,-0.59323 0.286328,-0.889846c0.042006,-0.14745 0.096014,-0.296615 0.157738,-0.444066c0.064295,-0.148308 0.149165,-0.276041 0.255466,-0.381485c0.168025,-0.106301 0.360053,-0.169739 0.571799,-0.191171c0.210888,-0.021432 0.46464,-0.031719 0.762112,-0.031719c0.148308,0 0.285471,0.005144 0.412347,0.016288c0.127733,0.010287 0.243464,0.036863 0.349766,0.078869c0.190314,0.08487 0.292329,0.222033 0.301759,0.413204c0.011145,0.191171 -0.025718,0.381485 -0.111445,0.571799c-0.126019,0.360053 -0.253752,0.731251 -0.380628,1.111878c-0.126876,0.381485 -0.276041,0.751825 -0.444066,1.111878c-0.042863,0.107159 -0.074582,0.206602 -0.096014,0.301759c-0.020574,0.096014 -0.053151,0.197172 -0.095157,0.302616c-0.170597,0.360053 -0.30776,0.731251 -0.413204,1.111021c-0.105444,0.381485 -0.243464,0.76297 -0.413204,1.144455c-0.105444,0.276041 -0.205745,0.555511 -0.301759,0.842696c-0.095157,0.285471 -0.205745,0.565798 -0.333478,0.841838c-0.360053,0.868414 -0.683244,1.746258 -0.968714,2.63696c-0.286328,0.888988 -0.609518,1.768547 -0.970429,2.63696c-0.126019,0.338621 -0.242607,0.6781 -0.348051,1.016721c-0.107159,0.339479 -0.234035,0.677243 -0.382342,1.015864c-0.105444,0.234035 -0.195457,0.450924 -0.27004,0.652382c-0.074582,0.201458 -0.228034,0.35491 -0.459496,0.460354c-0.12859,0.063438 -0.270897,0.095157 -0.430349,0.095157l-0.491215,0c-0.339479,0 -0.66867,-0.005144 -0.98586,-0.015431c-0.316332,-0.011145 -0.550367,-0.111445 -0.697817,-0.302616c-0.149165,-0.168882 -0.253752,-0.375484 -0.318904,-0.618948c-0.063438,-0.244322 -0.148308,-0.481785 -0.253752,-0.714963c-0.126876,-0.295758 -0.248608,-0.608661 -0.365197,-0.936995c-0.117446,-0.328334 -0.228034,-0.64038 -0.333478,-0.936995c-0.043721,-0.106301 -0.074582,-0.196315 -0.095157,-0.270897c-0.021432,-0.074582 -0.054008,-0.164596 -0.096871,-0.27004c-0.422634,-1.016721 -0.809262,-2.04373 -1.158171,-3.081026c-0.350623,-1.038153 -0.737252,-2.066019 -1.159885,-3.082741c-0.127733,-0.338621 -0.249465,-0.672099 -0.365197,-1.001291c-0.116589,-0.327477 -0.239178,-0.660955 -0.366054,-1.000433c-0.042006,-0.105444 -0.078869,-0.216032 -0.111445,-0.333478c-0.031719,-0.115731 -0.068582,-0.227176 -0.111445,-0.333478c-0.169739,-0.360053 -0.312046,-0.720106 -0.427777,-1.080159c-0.116589,-0.360053 -0.249465,-0.720106 -0.396916,-1.081017c-0.042863,-0.126019 -0.096871,-0.295758 -0.159452,-0.507503c-0.063438,-0.211746 -0.054008,-0.391772 0.031719,-0.540937c0.105444,-0.104587 0.23232,-0.180027 0.381485,-0.222033c0.14745,0 0.233177,-0.010287 0.253752,-0.031719"/>
  <path fill="#faad1a" fill-rule="nonzero" id="path492" d="m97.368425,24.727196c0,0.211746 0.005144,0.428635 0.017145,0.651525c0.00943,0.222033 -0.03772,0.396916 -0.144879,0.524649c-0.061723,0.126019 -0.157738,0.205745 -0.284613,0.237464c-0.126876,0.031719 -0.275183,0.069439 -0.44578,0.111445l-0.475784,0c-0.276041,0 -0.513504,-0.016288 -0.714963,-0.04715c-0.201458,-0.032576 -0.35491,-0.132877 -0.460354,-0.301759c-0.08487,-0.127733 -0.127733,-0.291472 -0.127733,-0.49293l0,-0.588087l0,-13.439411l0,-0.684101c0,-0.222033 0.052293,-0.396058 0.159452,-0.522934c0.063438,-0.106301 0.148308,-0.169739 0.253752,-0.191171c0.105444,-0.020574 0.222033,-0.053151 0.349766,-0.095157c0.042006,0 0.090013,0.006001 0.143164,0.015431c0.052293,0.012002 0.099443,0.006001 0.142307,-0.015431c0.275183,0 0.557225,0.006001 0.841838,0.015431c0.286328,0.012002 0.481785,0.101158 0.588087,0.270897c0.106301,0.126876 0.158595,0.291472 0.158595,0.492073l0,0.619806l0,13.439411zm-2.350633,-18.015515c-0.169739,-0.126019 -0.26061,-0.353195 -0.27004,-0.682386c-0.011145,-0.328334 -0.016288,-0.651525 -0.016288,-0.968714l0,-0.540937c0,-0.189457 0.032576,-0.348909 0.095157,-0.476642c0.08487,-0.168882 0.255466,-0.295758 0.509218,-0.380628c0.041149,-0.021432 0.089156,-0.026575 0.142307,-0.016288c0.052293,0.011145 0.100301,0.006001 0.143164,-0.015431c0.359196,0 0.698675,0.010287 1.016721,0.031719c0.318047,0.020574 0.528935,0.148308 0.636094,0.380628c0.063438,0.127733 0.0943,0.281184 0.0943,0.461211l0,0.556368c0,0.380628 -0.005144,0.740681 -0.016288,1.080159c-0.00943,0.338621 -0.153451,0.561511 -0.428635,0.666098c-0.105444,0.043721 -0.216889,0.064295 -0.33262,0.064295l-0.365197,0l-0.667813,0c-0.212603,0 -0.392629,-0.052293 -0.54008,-0.159452"/>
  <path fill="#faad1a" fill-rule="nonzero" id="path496" d="m113.63582,18.499889c0.020574,-0.106301 0.036005,-0.254609 0.048007,-0.44578c0.00943,-0.189457 -0.005144,-0.336907 -0.048007,-0.444066l0,-0.444923c-0.042863,-0.211746 -0.079726,-0.423491 -0.111445,-0.634379c-0.030862,-0.212603 -0.068582,-0.402917 -0.111445,-0.573513c-0.042006,-0.168025 -0.078012,-0.322333 -0.110588,-0.460354c-0.031719,-0.137163 -0.078869,-0.280327 -0.143164,-0.428635c-0.233177,-0.571799 -0.603518,-1.132453 -1.111878,-1.684534c-0.508361,-0.550367 -0.996147,-0.930994 -1.461644,-1.14274c-0.168882,-0.085727 -0.344622,-0.148308 -0.523792,-0.191171c-0.180884,-0.042006 -0.366054,-0.095157 -0.556368,-0.158595c-0.212603,-0.042006 -0.439779,-0.063438 -0.682386,-0.063438l-0.746682,0c-0.106301,0.021432 -0.207459,0.036863 -0.301759,0.04715c-0.096014,0.012002 -0.197172,0.016288 -0.303473,0.016288c-0.168882,0.042863 -0.338621,0.08487 -0.507503,0.126876c-0.169739,0.042006 -0.328334,0.106301 -0.476642,0.191171c-0.6781,0.296615 -1.223323,0.720106 -1.636527,1.270473c-0.412347,0.551224 -0.735537,1.196748 -0.967857,1.938286c-0.085727,0.233177 -0.144021,0.481785 -0.17574,0.745824c-0.031719,0.265753 -0.078869,0.535793 -0.143164,0.810977l0,0.286328c0,0.084012 -0.010287,0.180884 -0.031719,0.285471c-0.021432,0.08487 -0.026575,0.180027 -0.014574,0.286328c0.00943,0.105444 0.014574,0.211746 0.014574,0.318047l0,0.618948c0,0.201458 0.021432,0.386628 0.063438,0.555511c0.020574,0.064295 0.032576,0.158595 0.032576,0.287185c0.041149,0.14745 0.078869,0.296615 0.110588,0.444066c0.032576,0.149165 0.068582,0.296615 0.111445,0.444923c0.191171,0.614662 0.444923,1.170173 0.762112,1.668246c0.318904,0.498073 0.720106,0.915564 1.207892,1.254185c0.064295,0.042863 0.132019,0.085727 0.206602,0.127733c0.073725,0.042863 0.142307,0.08487 0.205745,0.126876c0.212603,0.127733 0.439779,0.228034 0.684101,0.301759c0.242607,0.074582 0.49293,0.143164 0.746682,0.207459c0.104587,0.042006 0.190314,0.057437 0.253752,0.04715c0.063438,-0.011145 0.14745,-0.005144 0.253752,0.015431c0.08487,0.020574 0.190314,0.03772 0.318047,0.048007c0.126876,0.010287 0.243464,-0.005144 0.348909,-0.048007l0.253752,0c0.064295,-0.020574 0.127733,-0.026575 0.192028,-0.015431c0.063438,0.010287 0.126876,0.005144 0.190314,-0.016288c0.169739,-0.042006 0.338621,-0.078869 0.508361,-0.111445c0.168882,-0.030862 0.328334,-0.078869 0.476642,-0.142307c0.656668,-0.275183 1.195891,-0.651525 1.621096,-1.128166c0.422634,-0.477499 0.771542,-1.03301 1.04844,-1.668246c0.105444,-0.233177 0.178312,-0.465497 0.222033,-0.699532c0.042006,-0.23232 0.095157,-0.475784 0.157738,-0.730393c0.042863,-0.084012 0.064295,-0.168882 0.064295,-0.254609c0,-0.083155 0.010287,-0.168025 0.032576,-0.253752c0.019717,-0.105444 0.025718,-0.22289 0.014574,-0.348909c-0.00943,-0.127733 -0.004286,-0.253752 0.016288,-0.381485m2.57438,12.42269c0,0.233177 0.004286,0.466355 0.015431,0.698675c0.010287,0.233177 -0.03772,0.413204 -0.143164,0.540937c-0.042863,0.063438 -0.095157,0.116589 -0.159452,0.158595c-0.062581,0.042863 -0.126019,0.084012 -0.190314,0.126876c-0.063438,0.021432 -0.169739,0.036863 -0.318047,0.04715c-0.14745,0.011145 -0.300902,0.016288 -0.460354,0.016288c-0.158595,0 -0.312046,-0.005144 -0.460354,-0.016288c-0.148308,-0.010287 -0.254609,-0.025718 -0.318047,-0.04715c-0.211746,-0.042863 -0.360053,-0.13802 -0.444923,-0.285471c-0.106301,-0.170597 -0.158595,-0.429492 -0.158595,-0.778401l0,-0.905276l0,-3.908291c0,-0.234035 0.005144,-0.492073 0.016288,-0.778401c0.010287,-0.285471 -0.027433,-0.524649 -0.111445,-0.714963c-0.043721,-0.042006 -0.080583,-0.079726 -0.111445,-0.111445c-0.030862,-0.031719 -0.069439,-0.067724 -0.111445,-0.111445c-0.211746,0 -0.375484,0.053151 -0.491215,0.159452c-0.117446,0.106301 -0.228034,0.211746 -0.334335,0.31719c-0.170597,0.126876 -0.348909,0.249465 -0.540937,0.366054c-0.189457,0.115731 -0.401202,0.227176 -0.635237,0.333478c-0.31719,0.126876 -0.682386,0.238321 -1.09559,0.333478c-0.413204,0.095157 -0.846982,0.158595 -1.303049,0.191171c-0.456067,0.031719 -0.911277,0.031719 -1.36563,0c-0.456067,-0.032576 -0.874415,-0.101158 -1.2559,-0.206602c-0.106301,-0.042863 -0.210888,-0.074582 -0.31719,-0.096014c-0.106301,-0.020574 -0.211746,-0.052293 -0.31719,-0.095157c-0.190314,-0.08487 -0.382342,-0.163738 -0.571799,-0.238321c-0.191171,-0.074582 -0.371198,-0.162881 -0.540937,-0.27004c-0.740681,-0.466355 -1.362201,-1.001291 -1.857703,-1.604808c-0.498931,-0.603518 -0.927565,-1.350199 -1.288476,-2.240045c-0.084012,-0.210888 -0.153451,-0.433778 -0.205745,-0.666956c-0.053151,-0.23232 -0.111445,-0.465497 -0.174883,-0.698675c-0.021432,-0.042863 -0.031719,-0.090013 -0.031719,-0.143164c0,-0.053151 -0.011145,-0.111445 -0.031719,-0.174883c-0.042863,-0.168882 -0.068582,-0.360053 -0.079726,-0.571799c-0.00943,-0.211746 -0.03772,-0.413204 -0.078012,-0.603518l0,-0.54008c-0.042863,-0.106301 -0.065152,-0.243464 -0.065152,-0.413204c0,-0.169739 0.022289,-0.306902 0.065152,-0.412347l0,-0.350623c0,-0.126019 0.00943,-0.253752 0.030862,-0.381485c0.020574,-0.084012 0.025718,-0.168882 0.015431,-0.253752c-0.010287,-0.084012 -0.006001,-0.180027 0.016288,-0.285471c0.063438,-0.233177 0.111445,-0.461211 0.143164,-0.683244c0.031719,-0.22289 0.078869,-0.439779 0.142307,-0.651525c0.085727,-0.275183 0.169739,-0.534936 0.253752,-0.778401c0.085727,-0.243464 0.180027,-0.481785 0.287185,-0.714963c0.14745,-0.295758 0.311189,-0.576942 0.492073,-0.841838c0.179169,-0.264896 0.364339,-0.523792 0.556368,-0.779258c0.021432,0 0.052293,-0.019717 0.095157,-0.062581c0.106301,-0.169739 0.265753,-0.338621 0.476642,-0.509218c0.020574,-0.020574 0.036005,-0.041149 0.048007,-0.062581c0.00943,-0.020574 0.036005,-0.042006 0.078012,-0.063438c0.08487,-0.064295 0.164596,-0.132877 0.239178,-0.206602c0.073725,-0.074582 0.163738,-0.144021 0.270897,-0.206602c0.295758,-0.233177 0.623235,-0.423491 0.984145,-0.571799c0.360053,-0.148308 0.740681,-0.286328 1.143597,-0.414061c0.212603,-0.083155 0.434636,-0.137163 0.667813,-0.158595c0.23232,-0.019717 0.465497,-0.052293 0.698675,-0.095157c0.084012,-0.020574 0.205745,-0.020574 0.365197,0c0.159452,0.021432 0.259753,0.011145 0.301759,-0.030862c0.698675,0 1.377632,0.084012 2.0343,0.253752c0.655811,0.168882 1.195891,0.380628 1.620239,0.635237c0.126876,0.08487 0.253752,0.169739 0.381485,0.253752c0.126876,0.085727 0.253752,0.180027 0.380628,0.287185c0.105444,0.083155 0.211746,0.168882 0.31719,0.253752c0.106301,0.08487 0.264896,0.126019 0.476642,0.126019c0.042006,-0.041149 0.08487,-0.078869 0.127733,-0.10973c0.042006,-0.032576 0.073725,-0.080583 0.095157,-0.144021c0.064295,-0.14745 0.100301,-0.306902 0.111445,-0.476642c0.010287,-0.168882 0.067724,-0.306045 0.174026,-0.413204c0.064295,-0.084012 0.195457,-0.153451 0.397773,-0.206602c0.200601,-0.051436 0.41749,-0.08487 0.651525,-0.0943c0.23232,-0.011145 0.45521,0.005144 0.666956,0.04715c0.210888,0.042863 0.369483,0.095157 0.476642,0.158595c0.148308,0.106301 0.227176,0.286328 0.237464,0.540937c0.011145,0.253752 0.017145,0.507503 0.017145,0.762112l0,19.571459z"/>
  <path fill="#ffffff" fill-rule="nonzero" id="path500" d="m132.572095,19.167109c0.042006,-0.14745 0.058294,-0.31719 0.048007,-0.508361c-0.012002,-0.191171 -0.016288,-0.37034 -0.016288,-0.54008c0,-0.82555 -0.074582,-1.525082 -0.222033,-2.096881c-0.063438,-0.169739 -0.117446,-0.338621 -0.159452,-0.508361c-0.042006,-0.169739 -0.095157,-0.328334 -0.158595,-0.476642c-0.592373,-1.376775 -1.536227,-2.330058 -2.827274,-2.85985c-0.149165,-0.063438 -0.308617,-0.111445 -0.477499,-0.142307c-0.169739,-0.032576 -0.338621,-0.068582 -0.508361,-0.111445c-0.169739,-0.042863 -0.348909,-0.064295 -0.539222,-0.064295l-0.573513,0l-0.570941,0.095157c-0.211746,0.042863 -0.40806,0.090871 -0.587229,0.144021c-0.180884,0.053151 -0.355767,0.121732 -0.524649,0.206602c-0.148308,0.042863 -0.286328,0.105444 -0.413204,0.190314c-0.126876,0.08487 -0.244322,0.169739 -0.349766,0.253752c-0.507503,0.36091 -0.920707,0.794689 -1.237897,1.302192c-0.318904,0.509218 -0.59323,1.102448 -0.827265,1.780548c-0.062581,0.211746 -0.105444,0.427777 -0.126876,0.650667c-0.021432,0.22289 -0.053151,0.450924 -0.095157,0.683244c-0.021432,0.08487 -0.031719,0.222033 -0.031719,0.413204c-0.022289,0.063438 -0.026575,0.13802 -0.017145,0.222033c0.011145,0.085727 0.017145,0.180027 0.017145,0.286328l0,0.634379c0,0.21346 0.020574,0.403774 0.063438,0.573513l0.063438,0.380628c0.042006,0.212603 0.078869,0.419205 0.111445,0.619806c0.031719,0.201458 0.090013,0.385771 0.174883,0.555511c0.211746,0.508361 0.460354,0.985002 0.746682,1.429925c0.286328,0.444923 0.639523,0.81612 1.064729,1.112736c0.104587,0.062581 0.199744,0.116589 0.284613,0.157738c0.08487,0.042863 0.180027,0.096014 0.286328,0.158595c0.169739,0.107159 0.354052,0.197172 0.555511,0.27004c0.201458,0.07544 0.419205,0.144021 0.652382,0.207459c0.106301,0.042006 0.205745,0.058294 0.301759,0.04715c0.0943,-0.010287 0.196315,-0.005144 0.302616,0.016288c0.062581,0.020574 0.193743,0.042863 0.396058,0.063438c0.201458,0.021432 0.354052,0.011145 0.461211,-0.031719c0.084012,-0.020574 0.169739,-0.026575 0.253752,-0.015431c0.084012,0.010287 0.169739,-0.005144 0.255466,-0.048007c0.168025,-0.042006 0.336907,-0.079726 0.507503,-0.111445c0.168882,-0.030862 0.327477,-0.079726 0.476642,-0.142307c0.719249,-0.296615 1.302192,-0.710676 1.746258,-1.239611c0.44578,-0.528935 0.81612,-1.153885 1.111878,-1.874848c0.106301,-0.253752 0.176597,-0.523792 0.207459,-0.81012c0.031719,-0.285471 0.089156,-0.576942 0.174883,-0.873557m2.828132,-1.81141c0.042006,0.126876 0.062581,0.324048 0.062581,0.587229c0,0.265753 -0.011145,0.450924 -0.031719,0.557225l0,0.31719c-0.019717,0.169739 -0.036863,0.324048 -0.048007,0.461211c-0.00943,0.13802 -0.026575,0.291472 -0.04715,0.460354c-0.041149,0.127733 -0.069439,0.253752 -0.078869,0.381485c-0.012002,0.126019 -0.03772,0.253752 -0.079726,0.381485c-0.08487,0.276041 -0.159452,0.551224 -0.222033,0.82555c-0.063438,0.276041 -0.148308,0.529792 -0.254609,0.762112c-0.444066,1.017579 -1.037296,1.869704 -1.779691,2.558092c-0.740681,0.688387 -1.651958,1.213036 -2.732117,1.573089c-0.234035,0.084012 -0.482643,0.14745 -0.746682,0.190314c-0.264896,0.042863 -0.534936,0.08487 -0.81012,0.127733c-0.126876,0.020574 -0.258895,0.036005 -0.396058,0.048007c-0.13802,0.00943 -0.270897,0.014574 -0.397773,0.014574c-0.085727,0.021432 -0.207459,0.032576 -0.366054,0.032576c-0.158595,0 -0.269183,-0.011145 -0.334335,-0.032576c-0.083155,-0.021432 -0.168882,-0.026575 -0.253752,-0.014574c-0.084012,0.00943 -0.157738,0.004286 -0.22289,-0.016288l-0.189457,0l-0.762112,-0.095157c-0.297472,-0.085727 -0.582943,-0.170597 -0.858127,-0.254609c-0.276041,-0.08487 -0.54008,-0.180027 -0.794689,-0.286328c-0.953283,-0.422634 -1.736828,-0.973858 -2.350633,-1.651958c-0.614662,-0.677243 -1.123023,-1.50365 -1.525082,-2.478366c-0.106301,-0.211746 -0.186027,-0.423491 -0.239178,-0.635237c-0.052293,-0.210888 -0.100301,-0.433778 -0.142307,-0.666956c-0.043721,-0.08487 -0.058294,-0.153451 -0.048007,-0.206602c0.010287,-0.053151 0.004286,-0.12259 -0.016288,-0.207459c-0.042006,-0.168882 -0.068582,-0.343765 -0.078869,-0.523792c-0.012002,-0.179169 -0.03772,-0.354052 -0.079726,-0.524649l0,-0.269183c0,-0.074582 -0.011145,-0.164596 -0.031719,-0.27004c-0.020574,-0.106301 -0.030862,-0.291472 -0.030862,-0.557225c0,-0.263182 0.020574,-0.460354 0.062581,-0.587229c0.042006,-0.14745 0.053151,-0.296615 0.031719,-0.444923c-0.020574,-0.148308 -0.010287,-0.295758 0.031719,-0.444923c0.021432,-0.104587 0.036863,-0.1946 0.048007,-0.269183c0.011145,-0.074582 0.025718,-0.164596 0.04715,-0.27004c0.064295,-0.254609 0.12259,-0.509218 0.174883,-0.76297c0.053151,-0.254609 0.132877,-0.498073 0.239178,-0.730393c0.316332,-0.783544 0.703818,-1.48822 1.158171,-2.114026c0.45521,-0.624092 1.012435,-1.147884 1.669961,-1.572232c0.253752,-0.168882 0.517791,-0.312046 0.793831,-0.428635c0.275183,-0.116589 0.560654,-0.238321 0.857269,-0.366054c0.253752,-0.104587 0.528935,-0.174026 0.826408,-0.206602c0.295758,-0.030862 0.59323,-0.088299 0.889846,-0.174026c0.148308,0 0.290614,-0.004286 0.427777,-0.016288c0.13802,-0.00943 0.270897,-0.025718 0.39863,-0.04715c1.885135,-0.020574 3.451366,0.37034 4.702122,1.176174c1.249041,0.804119 2.150031,1.853416 2.700398,3.145321c0.104587,0.211746 0.190314,0.422634 0.253752,0.635237c0.064295,0.211746 0.13802,0.433778 0.22289,0.666956c0.064295,0.233177 0.115731,0.481785 0.158595,0.747539c0.042863,0.264039 0.095157,0.534079 0.159452,0.809262c0.020574,0.106301 0.025718,0.217746 0.014574,0.333478c-0.00943,0.116589 -0.005144,0.228034 0.017145,0.333478"/>
  <path fill="#ffffff" fill-rule="nonzero" id="path504" d="m146.361247,9.57143c1.334768,-0.042006 2.402926,0.13802 3.208759,0.54008c0.804976,0.402917 1.449642,1.006434 1.938286,1.81141c0.126876,0.211746 0.227176,0.439779 0.301759,0.683244c0.073725,0.243464 0.142307,0.492073 0.206602,0.746682c0.106301,0.402917 0.169739,0.836695 0.190314,1.302192c0.021432,0.466355 0.032576,0.942996 0.032576,1.429925l0,3.399073l0,4.957589c0,0.360053 -0.006001,0.719249 -0.017145,1.079302c-0.010287,0.36091 -0.152594,0.59323 -0.427777,0.699532c-0.106301,0.042863 -0.217746,0.068582 -0.333478,0.078869c-0.116589,0.011145 -0.239178,0.016288 -0.366054,0.016288c-0.275183,0 -0.54008,-0.005144 -0.793831,-0.016288c-0.253752,-0.010287 -0.434636,-0.099443 -0.540937,-0.269183c-0.105444,-0.148308 -0.158595,-0.338621 -0.158595,-0.572656l0,-0.698675l0,-2.732117l0,-5.179621c0,-0.571799 -0.010287,-1.138454 -0.031719,-1.699108c-0.021432,-0.561511 -0.116589,-1.043297 -0.286328,-1.446213c-0.168882,-0.422634 -0.423491,-0.767256 -0.761255,-1.032152c-0.339479,-0.264896 -0.732108,-0.471498 -1.177031,-0.619806c-0.126019,-0.042006 -0.259753,-0.068582 -0.396916,-0.079726c-0.137163,-0.00943 -0.27004,-0.036005 -0.396916,-0.078869c-0.105444,-0.020574 -0.270897,-0.026575 -0.492073,-0.016288c-0.22289,0.012002 -0.377199,0.026575 -0.461211,0.048007c-0.084012,0.042863 -0.157738,0.058294 -0.221175,0.04715c-0.065152,-0.00943 -0.138878,-0.004286 -0.22289,0.016288c-0.276041,0.063438 -0.535793,0.132877 -0.778401,0.206602c-0.244322,0.073725 -0.472355,0.174883 -0.683244,0.301759c-0.085727,0.042863 -0.159452,0.08487 -0.22289,0.126876c-0.063438,0.042863 -0.13802,0.085727 -0.222033,0.126876c-0.741538,0.53065 -1.282475,1.324481 -1.620239,2.383209c-0.064295,0.170597 -0.107159,0.344622 -0.126876,0.524649c-0.021432,0.180027 -0.054008,0.35491 -0.096014,0.523792c-0.042863,0.107159 -0.053151,0.206602 -0.031719,0.301759c0.021432,0.096014 0.010287,0.186027 -0.031719,0.27004l0,0.667813c-0.020574,0.062581 -0.027433,0.13802 -0.015431,0.222033c0.00943,0.08487 0.015431,0.180027 0.015431,0.286328l0,0.953283l0,3.050164l0,2.795555l0,0.714963c0,0.243464 -0.053151,0.439779 -0.157738,0.588087c-0.108016,0.169739 -0.293186,0.258895 -0.557225,0.269183c-0.264039,0.011145 -0.534936,0.016288 -0.81012,0.016288c-0.169739,0 -0.329191,-0.010287 -0.476642,-0.031719c-0.148308,-0.020574 -0.275183,-0.074582 -0.381485,-0.158595c-0.170597,-0.106301 -0.253752,-0.306902 -0.253752,-0.604375l0,-0.857269l0,-3.748839l0,-7.689706l0,-1.938286l0,-0.571799c0,-0.190314 0.042006,-0.338621 0.126876,-0.444066c0.063438,-0.127733 0.168882,-0.211746 0.31719,-0.253752c0.08487,-0.021432 0.206602,-0.042863 0.365197,-0.064295c0.159452,-0.020574 0.324048,-0.031719 0.49293,-0.031719c0.169739,0 0.334335,0.011145 0.49293,0.031719c0.159452,0.021432 0.269183,0.053151 0.333478,0.095157c0.233177,0.148308 0.338621,0.334335 0.31719,0.556368c-0.021432,0.222033 0.011145,0.471498 0.095157,0.746682c0.042863,0.126876 0.127733,0.233177 0.255466,0.31719c0.253752,0.021432 0.461211,-0.073725 0.618948,-0.285471c0.158595,-0.211746 0.323191,-0.381485 0.492073,-0.509218c0.296615,-0.210888 0.599231,-0.407203 0.906134,-0.587229c0.306045,-0.179169 0.660955,-0.333478 1.064729,-0.460354c0.168025,-0.064295 0.353195,-0.105444 0.555511,-0.126876c0.201458,-0.020574 0.396916,-0.053151 0.588087,-0.096014c0.105444,-0.019717 0.210031,-0.031719 0.31719,-0.031719l0.318047,0z"/>
  <path fill="#ffffff" fill-rule="nonzero" id="path508" d="m17.677048,20.39764c-2.421786,-0.092585 -3.655396,-3.008158 -1.995723,-4.807566c0.442351,-0.478356 0.69696,-1.099019 0.69696,-1.750544l0,-3.651967c0,-0.786973 0.643809,-1.454786 1.429925,-1.444499c0.768113,0.011145 1.393063,0.642095 1.393063,1.411065l0,3.684544c0,0.637808 0.229748,1.259329 0.667813,1.722254c1.756545,1.84913 0.386628,4.934442 -2.192038,4.836714"/>
  <path fill="#ffffff" fill-rule="nonzero" id="path512" d="m33.738423,18.440741c-0.650667,0 -1.177888,-0.527221 -1.177888,-1.177888c0,-9.816591 -9.492543,-16.916496 -18.926792,-14.10551c-0.623235,0.186027 -1.279046,-0.168882 -1.465073,-0.792117c-0.18517,-0.623235 0.169739,-1.279046 0.792974,-1.465073c10.958474,-3.265339 21.954668,4.989307 21.954668,16.3627c0,0.650667 -0.528078,1.177888 -1.177888,1.177888"/>
  <path fill="#ffffff" fill-rule="nonzero" id="path516" d="m23.254972,10.695476c2.041158,1.640813 3.210474,4.081459 3.210474,6.696988c0,4.735556 -3.852568,8.588981 -8.588124,8.588981c-4.736413,0 -8.588981,-3.853426 -8.588981,-8.588981c0,-2.558092 1.128166,-4.965304 3.096457,-6.603546c0.499788,-0.415776 1.242183,-0.348051 1.658816,0.151737c0.415776,0.499788 0.348909,1.242183 -0.151737,1.658816c-4.460372,3.713691 -1.838843,11.026198 3.985445,11.026198c5.878296,0 8.465535,-7.425667 3.901433,-11.093922c-0.506646,-0.407203 -0.587229,-1.149598 -0.180027,-1.656244c0.40806,-0.506646 1.149598,-0.588087 1.656244,-0.180027"/>
  <path fill="#f3ab1d" fill-rule="nonzero" id="path520" d="m13.595382,5.137041c6.738994,-2.360062 14.142372,1.202749 16.501577,7.9426c3.608247,10.300091 -6.426948,20.146687 -16.61988,16.459571c-0.611233,-0.220318 -0.928423,-0.895846 -0.707247,-1.507937c0.221175,-0.611233 0.896704,-0.928423 1.508794,-0.70639c8.323228,3.009873 16.551299,-5.029599 13.595434,-13.466844c-1.930571,-5.513956 -7.987178,-8.428672 -13.500277,-6.497244c-0.613805,0.214317 -1.285047,-0.108873 -1.501079,-0.722678c-0.215175,-0.613805 0.108873,-1.286761 0.722678,-1.501079"/>
  <path fill="#ffffff" fill-rule="nonzero" id="path524" d="m8.900492,9.648511c0.533222,0.372055 0.663526,1.106735 0.291472,1.639956c-1.873133,2.684968 -2.488653,6.221204 -1.315051,9.572269c0.215175,0.613805 -0.108873,1.286761 -0.722678,1.501079c-0.613805,0.215175 -1.285047,-0.108873 -1.501079,-0.722678c-1.426496,-4.074601 -0.692674,-8.403811 1.60738,-11.698297c0.371198,-0.534079 1.105877,-0.664384 1.639956,-0.292329"/>
  <path fill="#ffffff" fill-rule="nonzero" id="path528" d="m17.876289,34.598565c-9.452252,0 -17.142815,-7.690563 -17.142815,-17.142815c0,-0.64981 0.528078,-1.177031 1.177888,-1.177031c0.651525,0 1.177888,0.527221 1.177888,1.177031c0,8.153489 6.63355,14.787039 14.787039,14.787039c3.466797,0 6.83758,-1.224181 9.490829,-3.44708c0.498931,-0.41749 1.241326,-0.352338 1.659673,0.146593c0.416633,0.498931 0.35148,1.240469 -0.146593,1.659673c-3.07674,2.576952 -6.98503,3.99659 -11.003909,3.99659"/>
 </g>
</svg>