<svg width="2001" height="1200" viewBox="0 0 2001 1200" fill="none" xmlns="http://www.w3.org/2000/svg">
<path d="M797.7 317.18V443.18H727.7V471.18H797.7V597.18H1007.7V345.18H1175.7V401.18H1203.7V317.18H797.7ZM979.7 569.18H825.7V471.18H895.7V443.18H825.7V345.18H979.7V569.18Z" fill="#F1F1F1"/>
<path d="M1175.7 569.18H1091.7V597.18H1203.7V471.18H1175.7V569.18Z" fill="#F1F1F1"/>
<path d="M983.39 883.02C979.31 883.02 975.86 881.6 973.07 878.76C970.27 875.92 968.87 872.46 968.87 868.37C968.87 864.28 970.27 860.96 973.07 858.11C975.87 855.27 979.31 853.85 983.39 853.85C987.47 853.85 990.94 855.27 993.78 858.11C996.62 860.95 998.04 864.37 998.04 868.37C998.04 872.37 996.62 875.92 993.78 878.76C990.94 881.6 987.47 883.02 983.39 883.02Z" fill="#F1F1F1"/>
<path d="M385.06 693.069H412.77V879.549H385.06V793.499H300.74V879.549H273.03V693.069H300.74V765.799H385.06V693.069Z" fill="#F1F1F1"/>
<path d="M444.73 879.56V693.08H560.48V720.79H472.43V765.81H543.29V793.52H472.43V851.86H560.48V879.57H444.73V879.56Z" fill="#F1F1F1"/>
<path d="M592.45 879.56V693.08H620.16V879.56H592.45Z" fill="#F1F1F1"/>
<path d="M798.51 693.069V720.779H739.1V879.559H711.39V720.779H652.12V693.069H798.51Z" fill="#F1F1F1"/>
<path d="M883.62 882.819C873.41 882.819 863.59 881.219 854.18 878.029C844.77 874.829 836.55 870.239 829.54 864.239C822.52 858.249 817.51 851.119 814.49 842.859L840.46 833.139C841.97 837.399 844.88 841.199 849.18 844.529C853.49 847.859 858.64 850.459 864.63 852.319C870.62 854.179 876.95 855.119 883.61 855.119C890.71 855.119 897.4 853.969 903.66 851.659C909.92 849.349 914.98 846.159 918.84 842.069C922.7 837.989 924.63 833.189 924.63 827.679C924.63 822.169 922.61 817.339 918.57 813.689C914.53 810.049 909.38 807.159 903.12 805.029C896.86 802.899 890.35 801.299 883.61 800.239C870.56 798.109 858.86 794.999 848.51 790.919C838.16 786.839 829.99 781.109 824 773.739C818.01 766.369 815.01 756.779 815.01 744.969C815.01 733.869 818.18 724.189 824.53 715.929C830.88 707.669 839.27 701.259 849.7 696.679C860.13 692.109 871.43 689.819 883.6 689.819C893.63 689.819 903.33 691.399 912.7 694.549C922.07 697.699 930.33 702.279 937.48 708.269C944.63 714.259 949.76 721.519 952.86 730.049L926.62 739.509C925.11 735.159 922.22 731.359 917.96 728.119C913.7 724.879 908.57 722.329 902.58 720.459C896.59 718.599 890.26 717.659 883.6 717.659C876.49 717.569 869.86 718.699 863.69 721.059C857.52 723.409 852.48 726.629 848.57 730.719C844.66 734.799 842.71 739.559 842.71 744.969C842.71 751.629 844.53 756.689 848.17 760.159C851.81 763.619 856.72 766.179 862.89 767.819C869.06 769.459 875.96 770.949 883.6 772.279C895.85 774.229 907.2 777.479 917.63 781.999C928.06 786.529 936.46 792.549 942.8 800.049C949.15 807.559 952.32 816.769 952.32 827.689C952.32 838.609 949.14 848.359 942.8 856.659C936.45 864.959 928.06 871.399 917.63 875.969C907.19 880.539 895.85 882.829 883.6 882.829L883.62 882.819Z" fill="#F1F1F1"/>
<path d="M1125.78 693.069H1153.49V879.549H1125.78V859.969C1121.43 866.899 1115.74 872.469 1108.73 876.689C1101.71 880.909 1093.5 883.019 1084.09 883.019C1074.68 883.019 1065.35 881.199 1056.92 877.559C1048.48 873.919 1041.05 868.879 1034.61 862.439C1028.17 855.999 1023.13 848.569 1019.49 840.129C1015.85 831.689 1014.03 822.639 1014.03 812.959C1014.03 803.279 1015.85 794.199 1019.49 785.719C1023.13 777.239 1028.17 769.779 1034.61 763.339C1041.05 756.899 1048.48 751.859 1056.92 748.219C1065.36 744.579 1074.41 742.759 1084.09 742.759C1093.77 742.759 1101.72 744.869 1108.73 749.089C1115.74 753.309 1121.43 758.839 1125.78 765.669V693.079V693.069ZM1084.35 856.249C1092.16 856.249 1099 854.319 1104.86 850.459C1110.72 846.599 1115.27 841.379 1118.51 834.809C1121.75 828.239 1123.37 820.959 1123.37 812.959C1123.37 804.959 1121.73 797.549 1118.44 790.979C1115.15 784.409 1110.6 779.189 1104.79 775.329C1098.97 771.469 1092.16 769.539 1084.34 769.539C1076.52 769.539 1069.58 771.489 1063.23 775.399C1056.88 779.309 1051.82 784.549 1048.05 791.119C1044.27 797.689 1042.39 804.969 1042.39 812.959C1042.39 820.949 1044.32 828.339 1048.18 834.869C1052.04 841.399 1057.15 846.589 1063.5 850.449C1069.85 854.309 1076.8 856.239 1084.35 856.239V856.249Z" fill="#F1F1F1"/>
<path d="M1199.57 727.039C1195.31 727.039 1191.75 725.659 1188.91 722.909C1186.07 720.159 1184.65 716.699 1184.65 712.519C1184.65 708.339 1186.07 704.989 1188.91 702.199C1191.75 699.399 1195.26 697.999 1199.43 697.999C1203.6 697.999 1206.98 699.399 1209.82 702.199C1212.66 704.999 1214.08 708.439 1214.08 712.519C1214.08 716.599 1212.68 720.159 1209.88 722.909C1207.08 725.659 1203.64 727.039 1199.56 727.039H1199.57ZM1185.45 746.349H1213.16V879.549H1185.45V746.349Z" fill="#F1F1F1"/>
<path d="M1338.5 746.349H1366.21V883.019C1366.21 892.169 1364.28 900.599 1360.42 908.329C1356.56 916.059 1351.34 922.739 1344.77 928.379C1338.2 934.019 1330.67 938.389 1322.19 941.499C1313.71 944.609 1304.85 946.159 1295.62 946.159C1286.39 946.159 1277.33 944.179 1268.71 940.229C1260.1 936.279 1252.53 930.929 1246 924.179C1239.47 917.429 1234.61 909.789 1231.42 901.269L1256.86 889.809C1258.64 895.319 1261.5 900.199 1265.45 904.459C1269.4 908.719 1274.02 912.099 1279.3 914.579C1284.58 917.059 1290.02 918.309 1295.62 918.309C1301.22 918.309 1306.43 917.439 1311.54 915.709C1316.64 913.979 1321.22 911.559 1325.26 908.449C1329.3 905.339 1332.52 901.609 1334.92 897.259C1337.32 892.909 1338.52 888.159 1338.52 883.009V860.499C1334.17 867.249 1328.57 872.689 1321.74 876.819C1314.9 880.949 1306.95 883.009 1297.9 883.009C1288.85 883.009 1279.61 881.189 1271.26 877.549C1262.91 873.909 1255.59 868.869 1249.28 862.429C1242.97 855.989 1238.05 848.559 1234.49 840.119C1230.94 831.679 1229.16 822.629 1229.16 812.949C1229.16 803.269 1230.94 794.189 1234.49 785.709C1238.04 777.229 1242.97 769.769 1249.28 763.329C1255.58 756.889 1262.91 751.849 1271.26 748.209C1279.61 744.569 1288.49 742.749 1297.9 742.749C1307.31 742.749 1314.9 744.809 1321.74 748.939C1328.58 753.069 1334.17 758.549 1338.52 765.389V746.339L1338.5 746.349ZM1298.14 856.249C1305.87 856.249 1312.61 854.269 1318.39 850.319C1324.16 846.369 1328.65 841.109 1331.84 834.539C1335.04 827.969 1336.64 820.779 1336.64 812.959C1336.64 805.139 1335.02 797.709 1331.78 791.179C1328.54 784.649 1324.03 779.409 1318.26 775.459C1312.49 771.509 1305.78 769.529 1298.15 769.529C1290.52 769.529 1283.87 771.479 1277.7 775.389C1271.53 779.299 1266.62 784.539 1262.98 791.109C1259.34 797.679 1257.52 804.959 1257.52 812.949C1257.52 820.939 1259.36 828.219 1263.05 834.799C1266.73 841.369 1271.66 846.589 1277.84 850.449C1284.01 854.309 1290.78 856.239 1298.15 856.239L1298.14 856.249Z" fill="#F1F1F1"/>
<path d="M1412.29 727.039C1408.03 727.039 1404.47 725.659 1401.63 722.909C1398.79 720.159 1397.37 716.699 1397.37 712.519C1397.37 708.339 1398.79 704.989 1401.63 702.199C1404.47 699.399 1407.98 697.999 1412.15 697.999C1416.32 697.999 1419.7 699.399 1422.54 702.199C1425.38 704.999 1426.8 708.439 1426.8 712.519C1426.8 716.599 1425.4 720.159 1422.6 722.909C1419.8 725.659 1416.36 727.039 1412.28 727.039H1412.29ZM1398.17 746.349H1425.88V879.549H1398.17V746.349Z" fill="#F1F1F1"/>
<path d="M1518.71 774.06H1490.74L1490.61 879.56H1462.9L1463.03 774.06H1441.85V746.349H1463.03L1462.9 704.52H1490.61L1490.74 746.349H1518.71V774.06Z" fill="#F1F1F1"/>
<path d="M1640.99 746.349H1668.7V879.549H1640.86L1639.79 860.239C1635.88 867.079 1630.6 872.579 1623.94 876.759C1617.28 880.939 1609.42 883.019 1600.36 883.019C1590.59 883.019 1581.4 881.179 1572.79 877.489C1564.18 873.809 1556.61 868.679 1550.08 862.109C1543.55 855.539 1538.47 847.969 1534.83 839.399C1531.19 830.829 1529.37 821.619 1529.37 811.759C1529.37 801.899 1531.15 793.309 1534.7 784.919C1538.25 776.529 1543.18 769.179 1549.49 762.879C1555.79 756.579 1563.1 751.619 1571.4 748.029C1579.7 744.429 1588.6 742.629 1598.11 742.629C1607.62 742.629 1616.34 744.829 1623.75 749.219C1631.16 753.619 1637.31 759.229 1642.2 766.069L1641 746.359L1640.99 746.349ZM1599.7 856.249C1607.51 856.249 1614.35 854.319 1620.21 850.459C1626.07 846.599 1630.62 841.379 1633.86 834.809C1637.1 828.239 1638.72 820.959 1638.72 812.959C1638.72 804.959 1637.08 797.549 1633.79 790.979C1630.5 784.409 1625.95 779.189 1620.14 775.329C1614.32 771.469 1607.51 769.539 1599.69 769.539C1591.87 769.539 1584.9 771.489 1578.51 775.399C1572.12 779.309 1567.05 784.549 1563.33 791.119C1559.6 797.689 1557.74 804.969 1557.74 812.959C1557.74 820.949 1559.67 828.339 1563.53 834.869C1567.39 841.399 1572.5 846.589 1578.85 850.449C1585.2 854.309 1592.15 856.239 1599.7 856.239V856.249Z" fill="#F1F1F1"/>
<path d="M1700.66 879.56V693.08H1728.37V879.56H1700.66Z" fill="#F1F1F1"/>
</svg>
